<svg xmlns="http://www.w3.org/2000/svg" xmlns:xlink="http://www.w3.org/1999/xlink" width="50" height="38"><defs><path id="a" d="M1036 3564c13.807 0 25 18.996 25 18.996S1049.807 3602 1036 3602c-13.808 0-25-19.004-25-19.004s11.192-18.996 25-18.996zm0 2c-10.767 0-20.151 13.187-22.636 16.996 2.488 3.808 11.89 17.004 22.636 17.004 10.744 0 20.146-13.193 22.635-17.004-2.489-3.805-11.89-16.996-22.635-16.996m11 16.996c0 6.076-4.925 11-11 11s-11-4.924-11-11c0-6.074 4.925-11 11-11s11 4.926 11 11zm-11-9a9.001 9.001 0 1 0 .002 18.002 9.001 9.001 0 0 0-.002-18.002z"/></defs><use xlink:href="#a" transform="translate(-1011 -3564)"/></svg>